<svg height="511pt" viewBox="-91 0 511 511.99952" width="511pt" xmlns="http://www.w3.org/2000/svg"><path d="m100.746094 164.808594 56.355468 56.355468 76.984376-20.625 20.625-76.984374-56.355469-56.351563-76.980469 20.625zm0 0" fill="#76ffd9"/><path d="m121.789062 164.347656 35.773438 35.777344c2.527344 2.523438 6.210938 3.511719 9.660156 2.585938l48.871094-13.09375c3.449219-.925782 6.144531-3.621094 7.070312-7.070313l13.09375-48.871094c.925782-3.453125-.058593-7.132812-2.585937-9.660156l-35.777344-35.773437c-2.523437-2.527344-6.207031-3.515626-9.65625-2.589844l-48.871093 13.097656c-3.449219.921875-6.144532 3.617188-7.070313 7.070312l-13.09375 48.867188c-.925781 3.453125.058594 7.132812 2.585937 9.660156zm0 0" fill="#fff"/><path d="m189.101562 123.335938 9.476563 9.472656c8.894531 8.898437 8.894531 23.324218 0 32.21875-8.898437 8.898437-23.324219 8.898437-32.21875 0l-9.476563-9.472656c-8.894531-8.894532-8.894531-23.320313 0-32.21875 8.898438-8.898438 23.324219-8.898438 32.21875 0zm0 0" fill="#ffc843"/><path d="m257.304688 194.921875 23.378906 23.382813c8.070312 8.070312 8.070312 21.152343 0 29.222656-8.070313 8.070312-21.152344 8.070312-29.222656 0l-23.378907-23.382813c-8.070312-8.070312-8.070312-21.152343 0-29.222656 8.066407-8.070313 21.152344-8.070313 29.222657 0zm0 0" fill="#ffc843"/><path d="m305.570312 255.507812 13.523438 30.171876c4.667969 10.414062.007812 22.640624-10.40625 27.308593s-22.640625.007813-27.308594-10.40625l-13.523437-30.171875c-4.667969-10.414062-.007813-22.640625 10.40625-27.308594 10.414062-4.667968 22.640625-.007812 27.308593 10.40625zm0 0" fill="#fff"/><path d="m322.902344 335.816406-6.003906 32.515625c-2.070313 11.222657-12.847657 18.640625-24.070313 16.570313-11.222656-2.074219-18.640625-12.851563-16.566406-24.074219l6.003906-32.515625c2.070313-11.21875 12.847656-18.636719 24.070313-16.566406 11.222656 2.070312 18.640624 12.847656 16.566406 24.070312zm0 0" fill="#ffc843"/><g fill="#fff"><path d="m291.855469 411.753906-25.183594 21.425782c-8.695313 7.394531-21.734375 6.34375-29.128906-2.351563-7.394531-8.691406-6.34375-21.730469 2.347656-29.125l25.1875-21.425781c8.691406-7.398438 21.730469-6.34375 29.125 2.347656s6.34375 21.734375-2.347656 29.128906zm0 0"/><path d="m34.765625 412.457031c0 7.390625-5.992187 13.382813-13.382813 13.382813-7.390624 0-13.382812-5.992188-13.382812-13.382813s5.992188-13.382812 13.382812-13.382812c7.390626 0 13.382813 5.992187 13.382813 13.382812zm0 0"/><path d="m60.867188 459.402344c0 7.390625-5.992188 13.382812-13.382813 13.382812s-13.382813-5.992187-13.382813-13.382812 5.992188-13.382813 13.382813-13.382813 13.382813 5.992188 13.382813 13.382813zm0 0"/><path d="m160.582031 360.714844c0 7.390625-5.992187 13.382812-13.382812 13.382812s-13.382813-5.992187-13.382813-13.382812 5.992188-13.382813 13.382813-13.382813 13.382812 5.992188 13.382812 13.382813zm0 0"/><path d="m153.703125 491.117188c0 7.390624-5.992187 13.382812-13.382813 13.382812-7.390624 0-13.382812-5.992188-13.382812-13.382812 0-7.390626 5.992188-13.382813 13.382812-13.382813 7.390626 0 13.382813 5.992187 13.382813 13.382813zm0 0"/></g><path d="m176.363281 80.859375 19.753907-5.292969 14.421874 14.425782c1.464844 1.464843 3.386719 2.195312 5.304688 2.195312s3.839844-.730469 5.304688-2.195312c2.929687-2.929688 2.929687-7.679688 0-10.605469l-13.601563-13.601563 9.191406-17.683594 15.523438-15.523437c1.097656-1.097656 1.828125-2.511719 2.089843-4.042969l3.367188-19.777344c.695312-4.082031-2.054688-7.957031-6.136719-8.648437-4.085937-.695313-7.957031 2.050781-8.652343 6.132813l-2.964844 17.417968-6.449219 6.449219-3.988281-10.519531c-1.46875-3.875-5.804688-5.824219-9.671875-4.355469-3.875 1.46875-5.824219 5.800781-4.355469 9.671875l6.914062 18.230469-9.191406 17.675781-20.746094 5.558594c-4 1.070312-6.375 5.183594-5.304687 9.183594 1.074219 4.003906 5.1875 6.375 9.191406 5.304687zm0 0" fill="#474d54"/><path d="m242.996094 202.304688h-.066406c-4.140626 0-7.46875 3.359374-7.46875 7.5 0 4.140624 3.390624 7.5 7.535156 7.5 4.140625 0 7.5-3.359376 7.5-7.5 0-4.140626-3.359375-7.5-7.5-7.5zm0 0" fill="#fff"/><path d="m293.914062 266.976562c1.46875-3.871093-.484374-8.203124-4.355468-9.667968l-.0625-.023438c-3.875-1.46875-8.171875.492188-9.640625 4.363282-1.46875 3.875.511719 8.214843 4.386719 9.683593.875.332031 1.773437.488281 2.65625.488281 3.027343 0 5.878906-1.84375 7.015624-4.84375zm0 0" fill="#c2c7d0"/><path d="m325.785156 316.097656c-1.078125-1.566406-2.296875-3-3.628906-4.292968 6.488281-8.082032 8.175781-19.382813 3.78125-29.191407l-13.523438-30.175781c-3.601562-8.035156-10.53125-13.554688-18.441406-15.675781 1.175782-8.570313-1.644531-17.421875-7.984375-23.761719l-23.382812-23.378906c-4.417969-4.421875-9.957031-7.058594-15.707031-7.921875l13.957031-52.09375 16.898437-4.816407 24.875 21.417969c1.417969 1.21875 3.160156 1.816407 4.890625 1.816407 2.109375 0 4.203125-.886719 5.6875-2.609376 2.703125-3.136718 2.351563-7.875-.789062-10.574218l-22.34375-19.238282 8.65625-10.390624 16.734375 4.875c3.980468 1.160156 8.140625-1.125 9.296875-5.101563 1.160156-3.976563-1.125-8.140625-5.101563-9.300781l-21.449218-6.25c-2.863282-.832032-5.949219.109375-7.859376 2.402344l-15.046874 18.054687-18.40625 5.246094-12.65625-12.65625c-2.929688-2.929688-7.675782-2.929688-10.605469 0-2.929688 2.929687-2.929688 7.675781 0 10.605469l12.710937 12.710937-15.601562 58.234375c-2.886719 1.347656-5.589844 3.207031-7.96875 5.589844-2.285156 2.285156-4.089844 4.875-5.425782 7.636718l-58.007812 15.542969-50.230469-50.230469 18.386719-68.617187 17.296875-4.636719c4-1.070312 6.375-5.183594 5.300781-9.183594-1.070312-4-5.183594-6.375-9.183594-5.304687l-17.296874 4.632813-21.660157-21.660157 5.316407-9.378906c.640624-1.128906.976562-2.402344.976562-3.699219v-16.085937c0-4.144531-3.359375-7.5-7.5-7.5-4.144531 0-7.5 3.355469-7.5 7.5v14.109375l-4.328125 7.632812-16.144531-4.132812c-4.019532-1.027344-8.101563 1.394531-9.125 5.40625-1.027344 4.011718 1.390625 8.097656 5.402344 9.125l19.710937 5.046875 24.246094 24.246093-18.226563 68.019532-28.648437 4.121094-6.4375-10.316407c-1.507813-2.417969-4.269531-3.769531-7.089844-3.496093l-17.148437 1.679687c-4.125.402344-7.140626 4.070313-6.734376 8.191406.402344 4.121094 4.070313 7.136719 8.191407 6.734375l12.519531-1.222656 3.410156 5.464844-8.851562 8.847656c-2.929688 2.929688-2.929688 7.679688 0 10.605469 1.464844 1.464843 3.386718 2.199219 5.304687 2.199219s3.839844-.734376 5.304688-2.199219l11.300781-11.300781 32.195312-4.632813 50.40625 50.410156-14.171874 41.921875-23.734376 9.285156c-3.859374 1.507813-5.761718 5.859376-4.253906 9.71875 1.160156 2.957032 3.988282 4.769532 6.988282 4.769532.90625 0 1.832031-.167969 2.730468-.519532l19.355469-7.574218 4.578125 15.675781c.957031 3.273437 3.949219 5.398437 7.195312 5.398437.695313 0 1.40625-.097656 2.105469-.304687 3.976563-1.160156 6.257813-5.324219 5.097657-9.300781l-6.214844-21.273438 14.738281-43.601562 51.894531-13.90625c.820313 5.851562 3.472656 11.492187 7.960938 15.984375l23.382812 23.378906c3.574219 3.574219 7.921875 6.058594 12.664063 7.3125-.699219 5.050781-.046875 10.347656 2.1875 15.335937l13.523437 30.175782c1.472656 3.285156 3.585938 6.230468 6.152344 8.710937-2.867188 3.535157-4.917969 7.808594-5.796875 12.585938l-6.007813 32.519531c-.621093 3.378906-.609374 6.765625-.019531 10.058594-3.117187 1.132812-6.042969 2.820312-8.644531 5.035156l-25.1875 21.425781c-5.730469 4.875-9.21875 11.6875-9.820312 19.1875-.25 3.082031.007812 6.128907.730468 9.046875-29.546875-.246094-56.234375-18.566406-66.894531-46.332031 5.449219-3.773437 9.035156-10.0625 9.035156-17.175781 0-11.515625-9.367187-20.882813-20.882812-20.882813s-20.882813 9.367188-20.882813 20.882813c0 10.539062 7.855469 19.257812 18.015625 20.660156 11.214844 31.367188 39.195313 53.171875 71.414063 57.191406-14.050782 8.675782-30.253906 13.335938-47.183594 13.335938h-17.527344l-5.992187-8.308594c-17.453125-24.195312-45.6875-38.636719-75.519531-38.636719h-28.675782c-3.019531-7.816406-10.597656-13.382812-19.464844-13.382812-11.515624 0-20.882812 9.367187-20.882812 20.882812 0 11.511719 9.367188 20.882813 20.882812 20.882813 8.867188 0 16.445313-5.566406 19.464844-13.382813h28.675782c24.832031 0 48.335937 11.933594 63.007812 31.945313h-65.578125c-3.023437-7.816406-10.597656-13.382813-19.46875-13.382813-11.515625 0-20.882813 9.367188-20.882813 20.882813 0 11.511718 9.367188 20.878906 20.882813 20.878906 8.871094 0 16.445313-5.566406 19.46875-13.378906h101.609375c19.996094 0 39.140625-5.554688 55.671875-15.925782-12.953125 22.210938-37.050781 36.25-63.480469 35.84375-1.984375-9.460937-10.390625-16.585937-20.433594-16.585937-11.515624 0-20.882812 9.367187-20.882812 20.882813 0 11.511718 9.367188 20.882812 20.882812 20.882812 7.621094 0 14.28125-4.117188 17.929688-10.230469 1.210938.050781 2.417969.078125 3.625.078125 36.792969 0 69.660156-23.191406 82.082031-57.824218 2.253907.785156 4.621094 1.292968 7.0625 1.488281.773438.0625 1.542969.09375 2.308594.09375 6.675781 0 13.0625-2.34375 18.203125-6.714844l4.867188-4.140625c3.152343-2.683594 3.535156-7.417969.851562-10.570312-2.683594-3.15625-7.414062-3.539063-10.570312-.855469l-4.867188 4.140625c-5.527344 4.703125-13.851562 4.03125-18.554688-1.496094-2.277343-2.679688-3.378906-6.082031-3.09375-9.585938.28125-3.507812 1.910157-6.691406 4.589844-8.96875l25.183594-21.425781c2.679688-2.277343 6.089844-3.378906 9.589844-3.09375 3.503906.28125 6.6875 1.910157 8.96875 4.589844 3.746094 4.40625 4.195312 10.652344 1.117187 15.542969-2.207031 3.503906-1.15625 8.132812 2.351563 10.339844 3.503906 2.207031 8.132812 1.15625 10.339844-2.347657 3.859374-6.125 5.109374-13.238281 3.894531-19.980469 9.203125-3.339843 16.230469-11.324218 18.078125-21.347656l6.003906-32.515625c1.363281-7.394531-.230469-14.882812-4.496094-21.078125zm-178.585937 38.734375c3.242187 0 5.882812 2.640625 5.882812 5.882813 0 3.242187-2.640625 5.882812-5.882812 5.882812-3.242188 0-5.882813-2.640625-5.882813-5.882812 0-3.242188 2.636719-5.882813 5.882813-5.882813zm-125.816407 63.507813c-3.242187 0-5.882812-2.640625-5.882812-5.882813 0-3.246093 2.640625-5.882812 5.882812-5.882812 3.242188 0 5.882813 2.636719 5.882813 5.882812 0 3.242188-2.640625 5.882813-5.882813 5.882813zm26.101563 46.945312c-3.242187 0-5.882813-2.640625-5.882813-5.882812 0-3.242188 2.640626-5.882813 5.882813-5.882813 3.246094 0 5.882813 2.636719 5.882813 5.882813 0 3.242187-2.636719 5.882812-5.882813 5.882812zm92.835937 31.714844c-3.242187 0-5.882812-2.640625-5.882812-5.882812 0-3.246094 2.640625-5.882813 5.882812-5.882813 3.246094 0 5.882813 2.640625 5.882813 5.882813 0 3.242187-2.636719 5.882812-5.882813 5.882812zm116.445313-254.777344-23.382813-23.382812c-5.132812-5.128906-5.132812-13.480469 0-18.613282 5.136719-5.132812 13.484376-5.132812 18.617188 0l23.378906 23.378907c3.535156 3.535156 4.722656 8.738281 3.203125 13.398437-1.140625.34375-2.273437.753906-3.386719 1.253906-4.089843 1.835938-7.523437 4.53125-10.195312 7.777344-3.121094-.242187-5.996094-1.574218-8.234375-3.8125zm17.933594 27.121094c-2.96875-6.625.007812-14.429688 6.628906-17.398438 6.625-2.964843 14.429687.007813 17.398437 6.628907l13.523438 30.171875c2.476562 5.53125.816406 12.066406-3.917969 15.757812-.210937-.046875-.421875-.09375-.632812-.132812-4.921875-.910156-9.78125-.464844-14.210938 1.054687-2.328125-1.382812-4.144531-3.40625-5.265625-5.910156zm40.832031 65.113281-6.003906 32.515625c-.964844 5.210938-4.914063 9.257813-9.933594 10.429688-4.125-4.683594-9.566406-7.804688-15.609375-9-.609375-2-.734375-4.109375-.347656-6.210938l6.003906-32.515625c1.316406-7.136719 8.203125-11.875 15.332031-10.554687 3.460938.640625 6.460938 2.585937 8.457032 5.480468 1.992187 2.898438 2.738281 6.394532 2.101562 9.855469zm0 0" fill="#474d54"/><path d="m308.628906 328.097656c-2.382812-3.386718-7.042968-4.171875-10.429687-1.789062-3.390625 2.382812-4.183594 7.085937-1.800781 10.476562 1.460937 2.074219 3.78125 3.183594 6.140624 3.183594 1.492188 0 3-.445312 4.3125-1.367188 3.386719-2.382812 4.199219-7.0625 1.816407-10.449218zm0 0" fill="#fff"/><path d="m278.746094 388.785156c-4.132813-.316406-7.738282 2.808594-8.054688 6.9375-.3125 4.128906 2.777344 7.734375 6.910156 8.050782.191407.011718.386719.019531.578126.019531 3.882812 0 7.167968-2.992188 7.46875-6.929688l.007812-.0625c.316406-4.128906-2.78125-7.699219-6.910156-8.015625zm0 0" fill="#c2c7d0"/><path d="m177.039062 151.714844c.234376.019531.464844.03125.691407.03125 3.835937 0 7.105469-2.921875 7.460937-6.816406l.007813-.0625c.378906-4.125-2.664063-7.742188-6.789063-8.121094-4.132812-.382813-7.777344 2.691406-8.15625 6.816406-.375 4.125 2.660156 7.773438 6.785156 8.152344zm0 0" fill="#fff"/></svg>